<svg width="154" height="84" viewBox="0 0 154 84" fill="none" xmlns="http://www.w3.org/2000/svg">
<g filter="url(#filter0_d_75_1093)">
<path d="M12.9773 56.0682V71H4.64205V36.0909H12.7045V49.625H12.9943C13.5852 48.0114 14.5511 46.75 15.892 45.8409C17.2443 44.9318 18.8977 44.4773 20.8523 44.4773C22.6932 44.4773 24.2955 44.8864 25.6591 45.7045C27.0227 46.5114 28.0795 47.6534 28.8295 49.1307C29.5909 50.608 29.9659 52.3352 29.9545 54.3125V71H21.6193V55.9489C21.6307 54.4943 21.267 53.358 20.5284 52.5398C19.7898 51.7216 18.75 51.3125 17.4091 51.3125C16.5341 51.3125 15.7614 51.5057 15.0909 51.892C14.4318 52.267 13.9148 52.8068 13.5398 53.5114C13.1761 54.2159 12.9886 55.0682 12.9773 56.0682ZM42.5384 71.4432C40.8679 71.4432 39.3849 71.1648 38.0895 70.608C36.8054 70.0398 35.7884 69.1875 35.0384 68.0511C34.2997 66.9034 33.9304 65.4659 33.9304 63.7386C33.9304 62.2841 34.1861 61.0568 34.6974 60.0568C35.2088 59.0568 35.9134 58.2443 36.8111 57.6193C37.7088 56.9943 38.7429 56.5227 39.9134 56.2045C41.0838 55.875 42.3338 55.6534 43.6634 55.5398C45.152 55.4034 46.3509 55.2614 47.2599 55.1136C48.169 54.9545 48.8281 54.733 49.2372 54.4489C49.6577 54.1534 49.8679 53.7386 49.8679 53.2045V53.1193C49.8679 52.2443 49.5668 51.5682 48.9645 51.0909C48.3622 50.6136 47.5497 50.375 46.527 50.375C45.4247 50.375 44.5384 50.6136 43.8679 51.0909C43.1974 51.5682 42.7713 52.2273 42.5895 53.0682L34.902 52.7955C35.1293 51.2045 35.7145 49.7841 36.6577 48.5341C37.6122 47.2727 38.919 46.2841 40.5781 45.5682C42.2486 44.8409 44.2543 44.4773 46.5952 44.4773C48.2656 44.4773 49.8054 44.6761 51.2145 45.0739C52.6236 45.4602 53.8509 46.0284 54.8963 46.7784C55.9418 47.517 56.7486 48.4261 57.3168 49.5057C57.8963 50.5852 58.1861 51.8182 58.1861 53.2045V71H50.3452V67.3523H50.1406C49.6747 68.2386 49.0781 68.9886 48.3509 69.6023C47.6349 70.2159 46.7884 70.6761 45.8111 70.983C44.8452 71.2898 43.7543 71.4432 42.5384 71.4432ZM45.1122 65.9886C46.0099 65.9886 46.8168 65.8068 47.5327 65.4432C48.2599 65.0795 48.8395 64.5795 49.2713 63.9432C49.7031 63.2955 49.919 62.5455 49.919 61.6932V59.2045C49.6804 59.3295 49.3906 59.4432 49.0497 59.5455C48.7202 59.6477 48.3565 59.7443 47.9588 59.8352C47.5611 59.9261 47.152 60.0057 46.7315 60.0739C46.3111 60.142 45.9077 60.2045 45.5213 60.2614C44.7372 60.3864 44.0668 60.5795 43.5099 60.8409C42.9645 61.1023 42.544 61.4432 42.2486 61.8636C41.9645 62.2727 41.8224 62.7614 41.8224 63.3295C41.8224 64.1932 42.1293 64.8523 42.7429 65.3068C43.3679 65.7614 44.1577 65.9886 45.1122 65.9886ZM63.2827 71V36.0909H71.6179V49.3011H71.7884C72.1293 48.5057 72.6122 47.7386 73.2372 47C73.8736 46.2614 74.6804 45.6591 75.6577 45.1932C76.6463 44.7159 77.8281 44.4773 79.2031 44.4773C81.0213 44.4773 82.7202 44.9545 84.2997 45.9091C85.8906 46.8636 87.1747 48.3352 88.152 50.3239C89.1293 52.3125 89.6179 54.8466 89.6179 57.9261C89.6179 60.892 89.1463 63.375 88.2031 65.375C87.2713 67.375 86.0099 68.875 84.419 69.875C82.8395 70.875 81.0838 71.375 79.152 71.375C77.8338 71.375 76.6918 71.1591 75.7259 70.7273C74.7599 70.2955 73.9474 69.7273 73.2884 69.0227C72.6406 68.3182 72.1406 67.5625 71.7884 66.7557H71.5327V71H63.2827ZM71.4474 57.9091C71.4474 59.3182 71.6349 60.5455 72.0099 61.5909C72.3963 62.6364 72.9474 63.4489 73.6634 64.0284C74.3906 64.5966 75.2599 64.8807 76.2713 64.8807C77.294 64.8807 78.1634 64.5966 78.8793 64.0284C79.5952 63.4489 80.1349 62.6364 80.4986 61.5909C80.8736 60.5455 81.0611 59.3182 81.0611 57.9091C81.0611 56.5 80.8736 55.2784 80.4986 54.2443C80.1349 53.2102 79.5952 52.4091 78.8793 51.8409C78.1747 51.2727 77.3054 50.9886 76.2713 50.9886C75.2486 50.9886 74.3793 51.267 73.6634 51.8239C72.9474 52.3807 72.3963 53.1761 72.0099 54.2102C71.6349 55.2443 71.4474 56.4773 71.4474 57.9091ZM93.9858 71V44.8182H102.321V71H93.9858ZM98.1619 41.767C96.9915 41.767 95.9858 41.3807 95.1449 40.608C94.304 39.8239 93.8835 38.8807 93.8835 37.7784C93.8835 36.6875 94.304 35.7557 95.1449 34.983C95.9858 34.1989 96.9915 33.8068 98.1619 33.8068C99.3438 33.8068 100.349 34.1989 101.179 34.983C102.02 35.7557 102.44 36.6875 102.44 37.7784C102.44 38.8807 102.02 39.8239 101.179 40.608C100.349 41.3807 99.3438 41.767 98.1619 41.767ZM122.405 44.8182V50.9545H105.888V44.8182H122.405ZM109.348 38.5455H117.683V62.767C117.683 63.2784 117.763 63.6932 117.922 64.0114C118.092 64.3182 118.337 64.5398 118.655 64.6761C118.973 64.8011 119.354 64.8636 119.797 64.8636C120.115 64.8636 120.45 64.8352 120.803 64.7784C121.166 64.7102 121.439 64.6534 121.621 64.608L122.882 70.625C122.484 70.7386 121.922 70.8807 121.195 71.0511C120.479 71.2216 119.621 71.3295 118.621 71.375C116.666 71.4659 114.99 71.2386 113.592 70.6932C112.206 70.1364 111.143 69.2727 110.405 68.1023C109.678 66.9318 109.325 65.4602 109.348 63.6875V38.5455ZM149.188 52.8125L141.534 53.017C141.455 52.4716 141.239 51.9886 140.886 51.5682C140.534 51.1364 140.074 50.8011 139.506 50.5625C138.949 50.3125 138.301 50.1875 137.562 50.1875C136.597 50.1875 135.773 50.3807 135.091 50.767C134.42 51.1534 134.091 51.6761 134.102 52.3352C134.091 52.8466 134.295 53.2898 134.716 53.6648C135.148 54.0398 135.915 54.3409 137.017 54.5682L142.062 55.5227C144.676 56.0227 146.619 56.8523 147.892 58.0114C149.176 59.1705 149.824 60.7045 149.835 62.6136C149.824 64.4091 149.29 65.9716 148.233 67.3011C147.188 68.6307 145.756 69.6648 143.938 70.4034C142.119 71.1307 140.04 71.4943 137.699 71.4943C133.96 71.4943 131.011 70.7273 128.852 69.1932C126.705 67.6477 125.477 65.5795 125.17 62.9886L133.403 62.7841C133.585 63.7386 134.057 64.4659 134.818 64.9659C135.58 65.4659 136.551 65.7159 137.733 65.7159C138.801 65.7159 139.67 65.517 140.341 65.1193C141.011 64.7216 141.352 64.1932 141.364 63.5341C141.352 62.9432 141.091 62.4716 140.58 62.1193C140.068 61.7557 139.267 61.4716 138.176 61.267L133.608 60.3977C130.983 59.9205 129.028 59.0398 127.744 57.7557C126.46 56.4602 125.824 54.8125 125.835 52.8125C125.824 51.0625 126.29 49.5682 127.233 48.3295C128.176 47.0795 129.517 46.125 131.256 45.4659C132.994 44.8068 135.045 44.4773 137.409 44.4773C140.955 44.4773 143.75 45.2216 145.795 46.7102C147.841 48.1875 148.972 50.2216 149.188 52.8125Z" fill="white"/>
</g>
<rect x="2.5" y="0.5" width="15" height="15" rx="3.5" fill="#7F1D1D" stroke="#27272A"/>
<rect x="22.5" y="0.5" width="15" height="15" rx="3.5" fill="#DC2626" stroke="#6D28D9"/>
<rect x="42.5" y="0.5" width="15" height="15" rx="3.5" fill="#EF4444" stroke="#7C3AED"/>
<rect x="62.5" y="0.5" width="15" height="15" rx="3.5" fill="#F87171" stroke="#8B5CF6"/>
<rect x="82.5" y="0.5" width="15" height="15" rx="3.5" fill="#FCA5A5" stroke="#F87171"/>
<rect x="102.5" y="0.5" width="15" height="15" rx="3.5" fill="#FECACA" stroke="#C4B5FD"/>
<defs>
<filter id="filter0_d_75_1093" x="0.642045" y="33.8068" width="153.193" height="45.7045" filterUnits="userSpaceOnUse" color-interpolation-filters="sRGB">
<feFlood flood-opacity="0" result="BackgroundImageFix"/>
<feColorMatrix in="SourceAlpha" type="matrix" values="0 0 0 0 0 0 0 0 0 0 0 0 0 0 0 0 0 0 127 0" result="hardAlpha"/>
<feOffset dy="4"/>
<feGaussianBlur stdDeviation="2"/>
<feComposite in2="hardAlpha" operator="out"/>
<feColorMatrix type="matrix" values="0 0 0 0 0 0 0 0 0 0 0 0 0 0 0 0 0 0 0.25 0"/>
<feBlend mode="normal" in2="BackgroundImageFix" result="effect1_dropShadow_75_1093"/>
<feBlend mode="normal" in="SourceGraphic" in2="effect1_dropShadow_75_1093" result="shape"/>
</filter>
</defs>
</svg>
